HIERARCHY
ROOT Hips
{
	OFFSET 0.000000 0.000000 0.000000
	CHANNELS 6 Xposition Yposition Zposition Zrotation Yrotation Xrotation 
	JOINT LHipJoint
	{
		OFFSET 0.000000 0.000000 0.000000
		CHANNELS 3 Zrotation Yrotation Xrotation
		JOINT LeftUpLeg
		{
			OFFSET 1.363060 -1.794630 0.839290
			CHANNELS 3 Zrotation Yrotation Xrotation
			JOINT LeftLeg
			{
				OFFSET 2.448110 -6.726130 0.000000
				CHANNELS 3 Zrotation Yrotation Xrotation
				JOINT LeftFoot
				{
					OFFSET 2.562200 -7.039590 0.000000
					CHANNELS 3 Zrotation Yrotation Xrotation
					JOINT LeftToeBase
					{
						OFFSET 0.157640 -0.433110 2.322550
						CHANNELS 3 Zrotation Yrotation Xrotation
						End Site
						{
							OFFSET 0.000000 0.000000 0.000000
						}
					}
				}
			}
		}
	}
	JOINT RHipJoint
	{
		OFFSET 0.000000 0.000000 0.000000
		CHANNELS 3 Zrotation Yrotation Xrotation
		JOINT RightUpLeg
		{
			OFFSET -1.305520 -1.794630 0.839290
			CHANNELS 3 Zrotation Yrotation Xrotation
			JOINT RightLeg
			{
				OFFSET -2.542530 -6.985550 0.000000
				CHANNELS 3 Zrotation Yrotation Xrotation
				JOINT RightFoot
				{
					OFFSET -2.568260 -7.056230 0.000000
					CHANNELS 3 Zrotation Yrotation Xrotation
					JOINT RightToeBase
					{
						OFFSET -0.164730 -0.452590 2.363150
						CHANNELS 3 Zrotation Yrotation Xrotation
						End Site
						{
							OFFSET 0.000000 0.000000 0.000000
						}
					}
				}
			}
		}
	}
	JOINT LowerBack
	{
		OFFSET 0.000000 0.000000 0.000000
		CHANNELS 3 Zrotation Yrotation Xrotation
		JOINT Spine
		{
			OFFSET 0.028270 2.035590 -0.193380
			CHANNELS 3 Zrotation Yrotation Xrotation
			JOINT Spine1
			{
				OFFSET 0.056720 2.048850 -0.042750
				CHANNELS 3 Zrotation Yrotation Xrotation
				JOINT Neck
				{
					OFFSET 0.000000 0.000000 0.000000
					CHANNELS 3 Zrotation Yrotation Xrotation
					JOINT Neck1
					{
						OFFSET -0.054170 1.746240 0.172020
						CHANNELS 3 Zrotation Yrotation Xrotation
						JOINT Head
						{
							OFFSET 0.104070 1.761360 -0.123970
							CHANNELS 3 Zrotation Yrotation Xrotation
							End Site
							{
								OFFSET 0.000000 0.000000 0.000000
							}
						}
					}
				}
				JOINT LeftShoulder
				{
					OFFSET 0.000000 0.000000 0.000000
					CHANNELS 3 Zrotation Yrotation Xrotation
					JOINT LeftArm
					{
						OFFSET 3.362410 1.200890 -0.311210
						CHANNELS 3 Zrotation Yrotation Xrotation
						JOINT LeftForeArm
						{
							OFFSET 4.983000 -0.000000 -0.000000
							CHANNELS 3 Zrotation Yrotation Xrotation
							JOINT LeftHand
							{
								OFFSET 3.483560 -0.000000 -0.000000
								CHANNELS 3 Zrotation Yrotation Xrotation
								JOINT LeftFingerBase
								{
									OFFSET 0.000000 0.000000 0.000000
									CHANNELS 3 Zrotation Yrotation Xrotation
									JOINT LeftHandIndex1
									{
										OFFSET 0.715260 -0.000000 -0.000000
										CHANNELS 3 Zrotation Yrotation Xrotation
										End Site
										{
											OFFSET 0.000000 0.000000 0.000000
										}
									}
								}
								JOINT LThumb
								{
									OFFSET 0.000000 0.000000 0.000000
									CHANNELS 3 Zrotation Yrotation Xrotation
									End Site
									{
										OFFSET 0.000000 0.000000 0.000000
									}
								}
							}
						}
					}
				}
				JOINT RightShoulder
				{
					OFFSET 0.000000 0.000000 0.000000
					CHANNELS 3 Zrotation Yrotation Xrotation
					JOINT RightArm
					{
						OFFSET -3.136600 1.374050 -0.404650
						CHANNELS 3 Zrotation Yrotation Xrotation
						JOINT RightForeArm
						{
							OFFSET -5.241900 -0.000000 -0.000000
							CHANNELS 3 Zrotation Yrotation Xrotation
							JOINT RightHand
							{
								OFFSET -3.444170 -0.000000 -0.000000
								CHANNELS 3 Zrotation Yrotation Xrotation
								JOINT RightFingerBase
								{
									OFFSET 0.000000 0.000000 0.000000
									CHANNELS 3 Zrotation Yrotation Xrotation
									JOINT RightHandIndex1
									{
										OFFSET -0.622530 -0.000000 -0.000000
										CHANNELS 3 Zrotation Yrotation Xrotation
										End Site
										{
											OFFSET 0.000000 0.000000 0.000000
										}
									}
								}
								JOINT RThumb
								{
									OFFSET 0.000000 0.000000 0.000000
									CHANNELS 3 Zrotation Yrotation Xrotation
									End Site
									{
										OFFSET 0.000000 0.000000 0.000000
									}
								}
							}
						}
					}
				}
			}
		}
	}
}
MOTION
Frames: 5
Frame Time: 0.008333
4.823666 17.108736 2.277251 -1.510213 -8.820357 13.191049 2.857934 1.279668 -0.086876 -27.642374 -7.592647 -32.367909 3.530039 13.173207 38.934279 0.801267 -0.828439 -5.720685 0.495800 4.514500 12.528700 -4.656059 -1.908035 0.566624 12.707099 19.068344 -55.413242 -1.769736 -11.104401 26.518857 -5.033419 -19.480556 47.114856 -0.066700 -1.666000 4.583500 0.203130 0.148316 5.025982 -0.502432 -0.035786 2.933371 0.341502 0.455134 -5.184433 -1.891221 -0.539276 -20.934070 0.989568 -0.463323 31.871104 0.300300 -0.417400 15.273700 -1.709809 -11.275782 1.676461 -46.993082 -40.800999 33.922707 76.586635 -53.117761 -51.317639 1.865600 -1.392897 -56.723036 24.369787 -23.888886 -9.424200 -7.125000 0.000000 0.000000 -2.612200 6.783400 2.287800 3.043084 11.907478 4.162611 49.823707 26.276462 34.086208 -106.874674 52.078405 -76.125031 -0.761343 -1.402754 -34.101573 -9.516769 -42.409889 5.416200 7.125000 0.000000 0.000000 40.082500 -68.133700 -23.689000 
4.820803 17.104543 2.282467 -1.495310 -8.511112 13.155302 2.880957 1.293084 -0.050216 -27.599150 -8.055291 -32.266949 3.572597 13.215431 39.095504 0.783912 -0.737215 -5.858942 0.493900 4.505900 12.504600 -4.653881 -1.925209 0.606584 12.736873 18.867748 -55.496054 -1.787628 -11.128706 26.585871 -4.708653 -19.344842 46.082897 -0.004900 -0.452600 1.243600 0.212694 0.045024 4.629973 -0.418748 -0.170330 3.456416 0.345940 0.396348 -4.857493 -2.092051 -0.648463 -21.123790 1.095463 -0.587338 31.695420 0.359900 -0.480100 15.257300 -1.696255 -11.287462 1.657056 -47.277601 -40.745901 34.274738 76.487358 -53.065680 -51.245884 1.861719 -1.425472 -56.499837 24.062080 -24.509728 -9.548900 -7.125000 0.000000 0.000000 -2.858200 6.188200 2.536700 3.034030 11.916711 4.149761 50.163702 26.096415 34.339468 -106.737423 52.075814 -76.011833 -0.751505 -1.403333 -33.889562 -8.923668 -42.576763 5.037000 7.125000 0.000000 0.000000 40.916800 -68.055500 -24.175100 
4.811496 17.109759 2.289626 -1.542748 -7.781781 12.839253 2.890414 1.316615 -0.003137 -27.438423 -8.588960 -31.689901 3.581731 13.187449 39.095717 0.798118 -0.803790 -5.879291 0.488900 4.483400 12.440800 -4.608761 -1.926525 0.622931 12.793358 18.508856 -55.152969 -1.848145 -11.194514 26.717631 -4.824509 -20.153110 46.720151 -0.081800 -1.844700 5.076600 0.165612 -0.193460 4.649438 -0.137635 -0.475735 3.946314 0.406703 0.262900 -4.768132 -2.213562 -0.750212 -21.357921 1.155104 -0.711965 31.730590 0.389400 -0.539200 15.344900 -1.713722 -11.262903 1.657832 -47.786561 -40.493831 34.740857 76.624322 -53.083913 -51.419031 1.855378 -1.449630 -56.401232 23.700750 -24.485333 -9.388200 -7.125000 0.000000 0.000000 -3.069900 6.279600 2.719700 3.020762 11.910974 4.137132 50.563477 25.798170 34.710685 -106.677162 52.083796 -75.977801 -0.755597 -1.399650 -33.732607 -8.799791 -42.520479 4.948200 7.125000 0.000000 0.000000 40.938100 -67.975000 -24.118000 
4.822746 17.082965 2.277661 -1.745488 -8.326758 13.225757 2.921202 1.292880 -0.053758 -27.278578 -8.663863 -32.195553 3.588153 13.240011 39.159254 0.700724 -0.368547 -5.957953 0.506800 4.563400 12.667200 -4.649283 -1.934339 0.635316 13.148154 18.692320 -55.863395 -1.840209 -11.234858 26.862041 -4.518219 -19.415275 45.509251 -0.000100 0.066100 -0.181500 0.323194 0.002591 4.837094 -0.049592 -0.209049 3.515574 0.285633 0.390262 -4.931652 -2.347272 -0.820176 -21.492120 1.197919 -0.774549 31.896063 0.415700 -0.572200 15.439000 -1.803795 -11.220638 1.736979 -48.695926 -39.958316 35.590532 76.827918 -53.161399 -51.675891 1.859028 -1.444811 -56.328378 23.895225 -23.840951 -9.207000 -7.125000 0.000000 0.000000 -2.885100 6.934700 2.519000 3.056161 11.874713 4.164122 50.957132 25.374270 35.257408 -106.571022 52.130432 -75.899163 -0.765074 -1.397299 -33.571378 -8.961481 -42.492775 5.052300 7.125000 0.000000 0.000000 40.745500 -68.009200 -24.020100 
4.808122 17.096771 2.291364 -1.368084 -7.685558 12.764535 2.913075 1.332766 0.000137 -27.603533 -9.132344 -31.411536 3.589639 13.189257 39.125131 0.697406 -0.336359 -6.140400 0.524900 4.643100 12.893500 -4.623564 -1.954612 0.640630 12.793631 18.290412 -55.414011 -1.939532 -11.321812 27.027757 -4.026944 -20.400345 44.370144 -0.001200 0.221000 -0.607200 -0.176326 -0.217659 4.991032 0.035296 -0.513210 3.898763 0.581350 0.270520 -4.935695 -2.379342 -0.791502 -21.574617 1.217873 -0.721149 31.809547 0.441800 -0.555600 15.420000 -1.824755 -11.185296 1.753257 -49.460049 -39.591338 36.351212 76.862840 -53.176042 -51.747330 1.864287 -1.434222 -56.325665 24.166931 -23.417961 -9.142600 -7.125000 0.000000 0.000000 -2.676400 7.342700 2.315000 3.061915 11.858870 4.147716 51.312671 25.037198 35.762132 -106.443135 52.152202 -75.810222 -0.775435 -1.390214 -33.411864 -9.094272 -42.332257 5.125300 7.125000 0.000000 0.000000 40.352700 -67.939800 -23.698700 
